<svg focusable="false" width="28" height="26" xmlns="http://www.w3.org/2000/svg"><g className"no-fill" fill="none" fill-rule="evenodd"><path d="M13.808 6.019C8.625 6.019 4.01 9.197 1 14.148c3.01 4.951 7.625 8.129 12.808 8.129s9.797-3.178 12.807-8.129c-3.01-4.951-7.624-8.13-12.807-8.13" stroke="#000" className"no-fill" strokeWidth="1.5" fill="none"></path><path d="M13.813 11.124c1.704 0 3.086 1.368 3.086 3.055 0 1.688-1.382 3.055-3.086 3.055s-3.086-1.367-3.086-3.055c0-1.687 1.382-3.055 3.086-3.055m0-3.055c-3.408 0-6.172 2.735-6.172 6.11 0 3.375 2.764 6.11 6.172 6.11s6.172-2.735 6.172-6.11c0-3.375-2.764-6.11-6.172-6.11" className"fill-white" fill="#FFF" fill-rule="nonzero"></path><path d="M17.913 14.18c0 2.244-1.839 4.064-4.105 4.064-2.268 0-4.106-1.82-4.106-4.065s1.838-4.064 4.106-4.064c2.266 0 4.105 1.82 4.105 4.064" stroke="#000" strokeWidth="1.5" className"no-fill" fill="none"></path><path className"no-fill" stroke="#FFF" strokeWidth="3" strokeLinecap="round" d="M2.872 22.306L22.03 3.339" fill="none"></path><path stroke="#000" strokeWidth="1.5" strokeLinecap="round" d="M4.24 23.661L23.398 4.694" className"no-fill" fill="none"></path></g></svg>