<svg role="presentation" focusable="false" width="30" height="30" className"icon icon-account">
        <path fill-rule="evenodd" clip-rule="evenodd" d="M16.25 13.75C18.3211 13.75 20 12.0711 20 10C20 7.92893 18.3211 6.25 16.25 6.25C14.1789 6.25 12.5 7.92893 12.5 10C12.5 12.0711 14.1789 13.75 16.25 13.75ZM21.25 10C21.25 12.7614 19.0114 15 16.25 15C13.4886 15 11.25 12.7614 11.25 10C11.25 7.23858 13.4886 5 16.25 5C19.0114 5 21.25 7.23858 21.25 10Z" fill="#4A4A4A"></path>
        <path fill-rule="evenodd" clip-rule="evenodd" d="M25 23.75V20.0855C25 19.1198 24.4641 18.3584 23.7023 18.105C21.9877 17.5349 19.3332 17.5 16.25 17.5C13.1668 17.5 10.5123 17.5349 8.79775 18.105C8.03589 18.3584 7.5 19.1198 7.5 20.0855V23.75L25 23.75ZM8.40332 16.9189C7.05549 17.3671 6.25 18.6651 6.25 20.0855L6.25 23.75C6.25 24.4404 6.80964 25 7.5 25H25C25.6904 25 26.25 24.4404 26.25 23.75V20.0855C26.25 18.6651 25.4445 17.3671 24.0967 16.9189C22.2968 16.3204 19.5052 16.25 16.25 16.25C12.9948 16.25 10.2032 16.3204 8.40332 16.9189Z" fill="#4A4A4A"></path>
        </svg>