<svg role="presentation" focusable="false" width="27" height="27" className"icon icon-twitter" viewBox="0 0 24 24">
        <path fill-rule="evenodd" clip-rule="evenodd" d="M15.414 4.96c1.506-.024 2.307.479 3.072 1.117.65-.05 1.495-.383 1.992-.614l.484-.242c-.285.702-.67 1.253-1.262 1.67-.131.093-.262.218-.426.277v.009c.843-.008 1.539-.357 2.2-.546v.01a5.934 5.934 0 0 1-1.318 1.384l-.607.442c.01.817-.014 1.598-.18 2.285-.971 3.995-3.544 6.707-7.616 7.868-1.462.418-3.825.59-5.5.208-.83-.188-1.581-.402-2.285-.684a9.54 9.54 0 0 1-1.1-.519l-.342-.19c.378.01.82.105 1.243.043.382-.056.757-.042 1.11-.113.879-.176 1.66-.41 2.332-.77.326-.175.82-.38 1.053-.632a3.59 3.59 0 0 1-1.157-.19c-1.258-.407-1.99-1.154-2.466-2.277.381.038 1.479.129 1.735-.07-.48-.023-.94-.278-1.27-.467-1.012-.58-1.837-1.551-1.83-3.047l.398.173c.254.098.512.15.815.208.128.024.384.093.531.043h-.019c-.195-.208-.514-.347-.71-.571-.65-.739-1.258-1.875-.873-3.229.097-.343.252-.646.417-.926l.019.009c.076.144.244.25.35.372.332.376.741.714 1.158 1.013 1.42 1.016 2.698 1.64 4.75 2.103.522.117 1.124.207 1.746.208-.175-.466-.119-1.22.019-1.67.346-1.134 1.097-1.952 2.2-2.39.263-.105.556-.18.863-.242l.474-.052Z" fill="currentColor"></path>
      </svg>