<svg xmlns="http://www.w3.org/2000/svg" id="Layer_1" viewBox="0 0 1073.06 47.95" style="width:220px;" >
<defs><style>.cls-1{stroke-width:0px;}</style></defs>
<path class="cls-1" 
d="m143.22,27.12h-25.23l12.59-18.62,12.64,18.62Zm-5.12-25.97c-.14-.2-.37-.32-.62-.32h-13.3c-.25,0-.48.12-.62.32l-30.85,44.6c-.16.23-.18.53-.05.78.13.25.39.41.67.41h10.83c.25,0,.48-.13.62-.33l6.87-10.12h37.91l6.87,10.12c.14.21.37.33.62.33h11.28s.02,0,.03,0c.42,0,.75-.34.75-.75,0-.23-.1-.44-.26-.57L138.1,1.15Z"/>
<path class="cls-1" d="m204.88,18.82c-13.93-.67-17.08-1.39-18.26-2.57-.48-.48-.73-1.23-.73-2.19,0-1.07.28-1.87.86-2.45,1.11-1.11,3.98-2.38,16.51-2.38,9.28,0,20.5,2.01,27.27,4.88.23.1.5.07.71-.07.21-.14.34-.38.34-.63V5.12c0-.31-.19-.58-.47-.7-6.76-2.69-16.65-4.17-27.84-4.17-13.89,0-21.46,1.64-25.3,5.48-2.27,2.27-3.32,5.19-3.32,9.21,0,3.49.9,6.09,2.75,7.95,3.45,3.45,9.66,4.75,26.6,5.6,14.97.79,17.91,1.33,19.15,2.57.58.58.86,1.4.86,2.57,0,1.07-.32,1.91-.98,2.57-1.82,1.82-6.94,2.57-17.65,2.57s-24.32-2.56-30.85-5.69c-.23-.11-.51-.1-.73.04-.22.14-.35.38-.35.64v8.3c0,.3.18.57.45.69,7.09,3.08,19.15,5,31.47,5,18.36,0,23.84-3.13,26.57-5.86,2.27-2.27,3.33-5.22,3.33-9.28,0-3.39-1.05-6.3-2.95-8.2-3.07-3.07-7.75-4.6-27.42-5.6h0Z"/>
 <path class="cls-1" d="m306.73,1.08h-66.46c-.42,0-.75.34-.75.75v7.98c0,.42.34.75.75.75h27.57v35.61c0,.42.34.75.75.75h9.82c.42,0,.75-.33.75-.75V10.57h27.57c.42,0,.75-.34.75-.75V1.83c0-.42-.34-.75-.75-.75h0Z"/><path class="cls-1" d="m373.26,1.08h-57.59c-.42,0-.75.34-.75.75v44.35c0,.42.34.75.75.75h57.59c.42,0,.75-.33.75-.75v-7.98c0-.42-.34-.75-.75-.75h-47.08v-9.01h46.19c.42,0,.75-.33.75-.75v-7.86c0-.42-.34-.75-.75-.75h-46.19v-8.51h47.08c.42,0,.75-.34.75-.75V1.83c0-.42-.34-.75-.75-.75h0Z"/><path class="cls-1" d="m435.34,16.78c0,1.8-.42,3.02-1.36,3.97-1.56,1.56-4.91,2.25-10.87,2.25h-26.68v-12.43h26.74c7.18,0,9.41.79,10.68,2.06,1,1,1.49,2.36,1.49,4.16h0Zm-5.34,15.12c7.6-.83,10.73-2.99,12.77-5.03,2.58-2.58,3.83-5.97,3.83-10.35,0-3.06-.62-7.33-3.58-10.29-3.35-3.35-7.54-5.16-20.05-5.16h-37.13c-.42,0-.75.34-.75.75v44.35c0,.42.34.75.75.75h9.82c.42,0,.75-.34.75-.75v-13.95h16.58l23.26,14.58c.12.08.26.12.4.12h14.82c.42,0,.75-.34.75-.75v-.19c0-.26-.14-.5-.36-.64l-21.88-13.44Z"/><path class="cls-1" d="m522.11,32.46c-7.84,3.93-14.48,5.62-21.98,5.62-4.12,0-6.82-.61-8.02-1.81-.79-.79-1.17-1.86-1.17-3.27s.37-2.41,1.17-3.21c1.38-1.38,4.23-2,9.22-2,8.57,0,14.46,1.32,20.78,4.67h0Zm43.5,12.86l-23.89-12.43c4.22-2.49,8.63-5.21,12.29-7.56.22-.14.34-.37.34-.63v-10.14c0-.28-.15-.54-.4-.67-.25-.13-.55-.11-.78.05-5.15,3.56-14.96,9.45-21.96,13.51l-20.42-10.7c-4.09-2.11-4.09-3.2-4.09-4.09,0-.48.17-1.12.54-1.5,1.16-1.16,4.5-1.68,10.81-1.68,5.45,0,11.34.68,18.03,2.07.22.05.45,0,.63-.15.18-.14.28-.36.28-.58V2.53c0-.35-.25-.66-.6-.74-5.75-1.2-11.77-1.79-18.4-1.79-10.7,0-16.42,1.35-19.73,4.66-1.83,1.83-2.88,4.54-2.88,7.44,0,3.28,1.29,5.89,4.02,8.04-.68-.04-1.35-.06-2-.06-7.03,0-11.89,1.44-14.85,4.4-2.37,2.38-3.58,5.49-3.58,9.27s1.22,7.1,3.52,9.4c3.26,3.26,8.52,4.78,16.56,4.78,10.92,0,20.34-2.77,33.51-9.84l16.31,8.74c.11.06.23.09.36.09h16.03c.42,0,.75-.33.75-.75v-.19c0-.28-.16-.54-.41-.67h0Z"/><path class="cls-1" d="m647.53,24c0,4.16-1.01,7.11-3.2,9.29-1.89,1.89-6.5,4.15-17.71,4.15h-21.68V10.57h21.68c11.21,0,15.82,2.26,17.71,4.15,2.19,2.18,3.2,5.14,3.2,9.29h0Zm-20.72-22.92h-32.44c-.42,0-.75.34-.75.75v44.35c0,.42.33.75.75.75h32.44c12.57,0,21.38-2.44,26.19-7.25,3.99-3.99,5.92-9.11,5.92-15.68s-1.93-11.69-5.92-15.67c-4.81-4.81-13.62-7.25-26.19-7.25h0Z"/><path class="cls-1" d="m728.94,1.08h-12.79c-.18,0-.36.07-.5.19l-21.61,18.95-21.62-18.95c-.14-.12-.31-.19-.49-.19h-13.18c-.42,0-.75.34-.75.75v.19c0,.22.1.42.26.57l29.9,26.07v17.53c0,.42.33.75.75.75h9.82c.42,0,.75-.33.75-.75v-17.65l29.96-25.94c.16-.14.26-.35.26-.57v-.19c0-.42-.33-.75-.75-.75h0Z"/><path class="cls-1" d="m800.58,1.08h-9.76c-.42,0-.75.34-.75.75v34.11L751.48,1.27c-.14-.13-.32-.19-.5-.19h-14.45c-.42,0-.75.34-.75.75v44.35c0,.42.33.75.75.75h9.76c.41,0,.75-.33.75-.75V11.44l39.29,35.3c.14.12.32.19.5.19h13.75c.42,0,.75-.33.75-.75V1.83c0-.42-.33-.75-.75-.75h0Z"/><path class="cls-1" d="m858.46,27.12h-25.23l12.59-18.62,12.64,18.62Zm-5.12-25.97c-.14-.2-.37-.32-.62-.32h-13.3c-.25,0-.48.12-.62.32l-30.86,44.6c-.16.23-.17.53-.04.78.13.25.39.41.67.41h10.83c.25,0,.48-.13.62-.33l6.87-10.12h37.91l6.87,10.12c.14.21.37.33.62.33h11.31c.42,0,.75-.34.75-.75,0-.23-.1-.44-.26-.57l-30.75-44.46Z"/>
<path class="cls-1" d="m975.88,1.08h-15.65c-.25,0-.48.12-.62.32l-25.73,37.37-25.68-37.36c-.14-.21-.37-.33-.62-.33h-16.03c-.41,0-.75.34-.75.75v44.35c0,.42.34.75.75.75h9.76c.42,0,.75-.33.75-.75V11.46l24.35,35.15c.14.2.37.32.61.32h13.31c.25,0,.48-.12.62-.32l24.35-35.15v34.72c0,.42.34.75.75.75h9.82c.42,0,.75-.33.75-.75V1.83c0-.42-.33-.75-.75-.75h0Z"/><path class="cls-1" d="m999.89,1.08h-9.82c-.42,0-.75.34-.75.75v44.35c0,.42.33.75.75.75h9.82c.42,0,.75-.33.75-.75V1.83c0-.42-.33-.75-.75-.75h0Z"/><path class="cls-1" d="m1045.19,9.49c9.66,0,19.66,2.5,26.74,6.67.23.14.52.14.75,0,.23-.13.38-.38.38-.65V6.39c0-.27-.15-.53-.39-.66-6.51-3.6-16.55-5.67-27.55-5.67-17.11,0-25.1,4.39-28.78,8.08-3.92,3.92-5.99,9.4-5.99,15.86s2.07,11.95,5.99,15.86c3.68,3.69,11.67,8.08,28.78,8.08,10.99,0,21.03-2.07,27.55-5.67.24-.13.39-.39.39-.66v-8.68c0-.27-.14-.51-.37-.65s-.51-.14-.75,0c-6.98,3.91-17,6.24-26.82,6.24s-16.79-1.84-19.99-5.04c-2.31-2.31-3.39-5.33-3.39-9.48s1.06-7.33,3.32-9.61c3.13-3.12,10.46-4.91,20.12-4.91h0Z"/><path class="cls-1" d="m81.29,1.48c-.13-.25-.39-.4-.67-.4h-11.2c-.25,0-.48.12-.62.33l-25.7,37.4L17.4,1.41c-.14-.21-.37-.33-.62-.33H.75c-.41,0-.75.34-.75.75v44.35c0,.42.34.75.75.75h9.76c.42,0,.75-.33.75-.75V11.46l24.35,35.15c.14.2.37.32.62.32h13.75c.25,0,.48-.12.62-.32l21.38-30.85,9.27-13.5c.16-.23.18-.53.05-.78h0Z"/><path class="cls-1" d="m86.02,14.28c-.09-.1-.2-.19-.34-.24-.31-.1-.65.02-.84.29l-9.76,14.08c-.09.12-.13.28-.13.43v17.22c0,.42.34.75.75.75h9.76c.41,0,.75-.33.75-.75V14.77c0-.18-.07-.35-.18-.48h0Z"/></svg>